<svg id="visual" viewBox="0 0 900 600" width="900" height="600" xmlns="http://www.w3.org/2000/svg" xmlns:xlink="http://www.w3.org/1999/xlink" version="1.1"><rect x="0" y="0" width="900" height="600" fill="#07023a"></rect><defs><linearGradient id="grad1_0" x1="33.3%" y1="100%" x2="100%" y2="0%"><stop offset="20%" stop-color="#07023a" stop-opacity="1"></stop><stop offset="80%" stop-color="#07023a" stop-opacity="1"></stop></linearGradient></defs><defs><linearGradient id="grad2_0" x1="0%" y1="100%" x2="66.7%" y2="0%"><stop offset="20%" stop-color="#07023a" stop-opacity="1"></stop><stop offset="80%" stop-color="#07023a" stop-opacity="1"></stop></linearGradient></defs><g transform="translate(900, 600)"><path d="M-216.3 0C-213.4 -28.1 -210.5 -56.2 -199.9 -82.8C-189.2 -109.3 -170.8 -134.3 -147.8 -147.8C-124.7 -161.3 -97 -163.3 -71.6 -172.8C-46.1 -182.3 -23.1 -199.3 0 -216.3L0 0Z" fill="#e0b021"></path></g><g transform="translate(0, 0)"><path d="M216.3 0C206.3 26.8 196.2 53.7 182.9 75.8C169.7 97.9 153.2 115.2 137.2 137.2C121.2 159.2 105.6 185.9 82.8 199.9C60 213.8 30 215.1 0 216.3L0 0Z" fill="#e0b021"></path></g></svg>